# xmcd CD database file
# Copyright (C) 1993-1998 Ti Kan
#
# Track frame offsets:
#  150
#  7900
#  17445
#  24515
#  35065
#  48267
#  61980
#  71630
#  88117
#  103915
#  116365
#  130120
#  144132
#  156980
#  174922
#  192082
#  205032
#  220257
#  238612
#
# Disc length: 3342 seconds
#
# Revision: 1
# Processed by: cddbd v1.4b41PL1 Copyright (c) Steve Scherf et al.
# Submitted via: CDWizzard Release:4.31
#
DISCID=f70d0c13
DTITLE=Tony Bennett - Life is a song
DYEAR=1900
DGENRE=
TTITLE0=I guess I'll have to change my plans
TTITLE1=Chicago
TTITLE2=With plenty of money and you
TTITLE3=Anything goes
TTITLE4=Life is a song
TTITLE5=I've grown accustomed to her face
TTITLE6=Jeepers creepers
TTITLE7=Growing pains
TTITLE8=Poor little rich girl
TTITLE9=Are you havin any fun
TTITLE10=Jumpin at the woodside
TTITLE11=Swinging the blues
TTITLE12=Shorty George
TTITLE13=Dickie's dream
TTITLE14=920 special
TTITLE15=Out of the window
TTITLE16=Broadway
TTITLE17=Lester leaps in
TTITLE18=April in Paris
EXTD=
EXTT0=
EXTT1=
EXTT2=
EXTT3=
EXTT4=
EXTT5=
EXTT6=
EXTT7=
EXTT8=
EXTT9=
EXTT10=
EXTT11=
EXTT12=
EXTT13=
EXTT14=
EXTT15=
EXTT16=
EXTT17=
EXTT18=
PLAYORDER=
